<?xml version="1.0" encoding="utf-8"?>
<!-- Generator: Adobe Illustrator 27.8.0, SVG Export Plug-In . SVG Version: 6.00 Build 0)  -->
<svg version="1.1" id="Layer_1" xmlns="http://www.w3.org/2000/svg" xmlns:xlink="http://www.w3.org/1999/xlink" x="0px" y="0px"
	 viewBox="0 0 922.1 138.2" style="enable-background:new 0 0 922.1 138.2;" xml:space="preserve">
<style type="text/css">
	.st0{fill:#FAF9F7;}
</style>
<path class="st0" d="M360.4,1.7l36.5,125h1.2V1.7h35.3v134.6h-69.2l-36.5-125h-1.2v125h-35.3V1.7H360.4z M570.9,1.7l-32.7,134.6
	h-67.3L438.2,1.7h38.5l27.9,120.2L532.5,1.7H570.9z M679.8,1.7v26.9h-65.4v25h57.7v26.9h-57.7v28.9h65.4v26.9H575.9V1.7H679.8z
	 M753.8,62.3c11.5,0,17.3-7.5,17.3-17.3s-5.7-17.3-17.3-17.3H725v34.6H753.8z M755.8,1.7c38.5,0,53.8,21.1,53.8,44.2
	c0,17.1-6.9,30.6-23.8,37.5l27.7,53.1h-40.4L751,88.2h-26v48.1h-38.5V1.7H755.8z M812.3,1.7v30.8H848v103.8h38.4V32.5h35.7V1.7
	H812.3z M69.2,28.1c-21.7,0-30.8,12.1-30.8,41.1c0,28.6,9,41,30.8,41c16.2,0,24-6,26.9-20.6h38.5c-7.5,34-27.1,48.6-65.4,48.6
	c-49.8,0-69.2-20.8-69.2-69C0,20.8,19.4,0,69.2,0c40.8,0,60.6,14.6,65.4,48.6H96.1C93.2,34,85.4,28.1,69.2,28.1 M212.2,110
	c21.7,0,32.7-12.3,32.7-41s-11-41-32.7-41c-21.7,0-32.7,12.3-32.7,41S190.5,110,212.2,110 M212.2,0.3c49.8,0,71.1,20.6,71.1,68.8
	s-21.3,68.8-71.1,68.8S141,117.3,141,69.1S162.4,0.3,212.2,0.3"/>
</svg>
